<svg xmlns="http://www.w3.org/2000/svg" width="1040" height="380" viewBox="0 0 1040 380" font-family="ui-sans-serif,system-ui,sans-serif">
<rect width="1040" height="380" fill="#fbfbfa"/>
<line x1="46" y1="156" x2="248" y2="156" stroke="#444"/>
<line x1="46" y1="26" x2="46" y2="156" stroke="#444"/>
<rect x="46" y="39.3" width="202" height="1.3" fill="#b4453c" fill-opacity="0.12"/>
<line x1="46" y1="39.9" x2="248" y2="39.9" stroke="#b4453c" stroke-dasharray="4 3"/>
<polyline points="96.5,71.3 147.0,120.6 197.5,142.4 248.0,150.9" fill="none" stroke="#2f6f8f" stroke-width="2"/>
<line x1="96.5" y1="73.0" x2="96.5" y2="69.5" stroke="#2f6f8f" stroke-opacity="0.5" stroke-width="2"/>
<circle cx="96.5" cy="71.3" r="3.2" fill="#2f6f8f"/>
<line x1="147.0" y1="122.3" x2="147.0" y2="118.9" stroke="#2f6f8f" stroke-opacity="0.5" stroke-width="2"/>
<circle cx="147.0" cy="120.6" r="3.2" fill="#2f6f8f"/>
<line x1="197.5" y1="142.6" x2="197.5" y2="142.3" stroke="#2f6f8f" stroke-opacity="0.5" stroke-width="2"/>
<circle cx="197.5" cy="142.4" r="3.2" fill="#2f6f8f"/>
<line x1="248.0" y1="151.0" x2="248.0" y2="150.8" stroke="#2f6f8f" stroke-opacity="0.5" stroke-width="2"/>
<circle cx="248.0" cy="150.9" r="3.2" fill="#2f6f8f"/>
<text x="46" y="16" font-size="11" fill="#222">action_latency_steps</text>
<text x="46.0" y="169" font-size="9" fill="#666" text-anchor="middle">0</text>
<text x="248.0" y="169" font-size="9" fill="#666" text-anchor="middle">4</text>
<text x="41" y="39.9" font-size="9" fill="#b4453c" text-anchor="end">56</text>
<text x="41" y="156" font-size="9" fill="#666" text-anchor="end">0</text>
<line x1="306" y1="156" x2="508" y2="156" stroke="#444"/>
<line x1="306" y1="26" x2="306" y2="156" stroke="#444"/>
<rect x="306" y="39.3" width="202" height="1.3" fill="#b4453c" fill-opacity="0.12"/>
<line x1="306" y1="39.9" x2="508" y2="39.9" stroke="#b4453c" stroke-dasharray="4 3"/>
<polyline points="306.0,149.7 369.1,51.0 444.9,46.9 508.0,137.3" fill="none" stroke="#2f6f8f" stroke-width="2"/>
<line x1="306.0" y1="150.3" x2="306.0" y2="149.2" stroke="#2f6f8f" stroke-opacity="0.5" stroke-width="2"/>
<circle cx="306.0" cy="149.7" r="3.2" fill="#2f6f8f"/>
<line x1="369.1" y1="52.1" x2="369.1" y2="49.8" stroke="#2f6f8f" stroke-opacity="0.5" stroke-width="2"/>
<circle cx="369.1" cy="51.0" r="3.2" fill="#2f6f8f"/>
<line x1="444.9" y1="48.2" x2="444.9" y2="45.5" stroke="#2f6f8f" stroke-opacity="0.5" stroke-width="2"/>
<circle cx="444.9" cy="46.9" r="3.2" fill="#2f6f8f"/>
<line x1="508.0" y1="138.6" x2="508.0" y2="136.1" stroke="#2f6f8f" stroke-opacity="0.5" stroke-width="2"/>
<circle cx="508.0" cy="137.3" r="3.2" fill="#2f6f8f"/>
<text x="306" y="16" font-size="11" fill="#222">cam_yaw_deg</text>
<text x="306.0" y="169" font-size="9" fill="#666" text-anchor="middle">-4</text>
<text x="508.0" y="169" font-size="9" fill="#666" text-anchor="middle">4</text>
<text x="301" y="39.9" font-size="9" fill="#b4453c" text-anchor="end">56</text>
<text x="301" y="156" font-size="9" fill="#666" text-anchor="end">0</text>
<line x1="566" y1="156" x2="768" y2="156" stroke="#444"/>
<line x1="566" y1="26" x2="566" y2="156" stroke="#444"/>
<rect x="566" y="39.3" width="202" height="1.3" fill="#b4453c" fill-opacity="0.12"/>
<line x1="566" y1="39.9" x2="768" y2="39.9" stroke="#b4453c" stroke-dasharray="4 3"/>
<polyline points="616.5,147.6 641.8,45.2 717.5,46.5 768.0,57.0" fill="none" stroke="#2f6f8f" stroke-width="2"/>
<line x1="616.5" y1="148.1" x2="616.5" y2="147.2" stroke="#2f6f8f" stroke-opacity="0.5" stroke-width="2"/>
<circle cx="616.5" cy="147.6" r="3.2" fill="#2f6f8f"/>
<line x1="641.8" y1="45.9" x2="641.8" y2="44.5" stroke="#2f6f8f" stroke-opacity="0.5" stroke-width="2"/>
<circle cx="641.8" cy="45.2" r="3.2" fill="#2f6f8f"/>
<line x1="717.5" y1="48.3" x2="717.5" y2="44.7" stroke="#2f6f8f" stroke-opacity="0.5" stroke-width="2"/>
<circle cx="717.5" cy="46.5" r="3.2" fill="#2f6f8f"/>
<line x1="768.0" y1="57.6" x2="768.0" y2="56.5" stroke="#2f6f8f" stroke-opacity="0.5" stroke-width="2"/>
<circle cx="768.0" cy="57.0" r="3.2" fill="#2f6f8f"/>
<text x="566" y="16" font-size="11" fill="#222">servo_damping_scale</text>
<text x="566.0" y="169" font-size="9" fill="#666" text-anchor="middle">0</text>
<text x="768.0" y="169" font-size="9" fill="#666" text-anchor="middle">2</text>
<text x="561" y="39.9" font-size="9" fill="#b4453c" text-anchor="end">56</text>
<text x="561" y="156" font-size="9" fill="#666" text-anchor="end">0</text>
<line x1="826" y1="156" x2="1028" y2="156" stroke="#444"/>
<line x1="826" y1="26" x2="826" y2="156" stroke="#444"/>
<rect x="826" y="39.3" width="202" height="1.3" fill="#b4453c" fill-opacity="0.12"/>
<line x1="826" y1="39.9" x2="1028" y2="39.9" stroke="#b4453c" stroke-dasharray="4 3"/>
<polyline points="873.1,118.9 893.3,93.3 920.3,63.7 1028.0,41.7" fill="none" stroke="#2f6f8f" stroke-width="2"/>
<line x1="873.1" y1="119.4" x2="873.1" y2="118.3" stroke="#2f6f8f" stroke-opacity="0.5" stroke-width="2"/>
<circle cx="873.1" cy="118.9" r="3.2" fill="#2f6f8f"/>
<line x1="893.3" y1="93.8" x2="893.3" y2="92.8" stroke="#2f6f8f" stroke-opacity="0.5" stroke-width="2"/>
<circle cx="893.3" cy="93.3" r="3.2" fill="#2f6f8f"/>
<line x1="920.3" y1="64.7" x2="920.3" y2="62.7" stroke="#2f6f8f" stroke-opacity="0.5" stroke-width="2"/>
<circle cx="920.3" cy="63.7" r="3.2" fill="#2f6f8f"/>
<line x1="1028.0" y1="43.5" x2="1028.0" y2="39.8" stroke="#2f6f8f" stroke-opacity="0.5" stroke-width="2"/>
<circle cx="1028.0" cy="41.7" r="3.2" fill="#2f6f8f"/>
<text x="826" y="16" font-size="11" fill="#222">gripper_rate_scale</text>
<text x="826.0" y="169" font-size="9" fill="#666" text-anchor="middle">0</text>
<text x="1028.0" y="169" font-size="9" fill="#666" text-anchor="middle">1.5</text>
<text x="821" y="39.9" font-size="9" fill="#b4453c" text-anchor="end">56</text>
<text x="821" y="156" font-size="9" fill="#666" text-anchor="end">0</text>
<line x1="46" y1="346" x2="248" y2="346" stroke="#444"/>
<line x1="46" y1="216" x2="46" y2="346" stroke="#444"/>
<rect x="46" y="229.3" width="202" height="1.3" fill="#b4453c" fill-opacity="0.12"/>
<line x1="46" y1="229.9" x2="248" y2="229.9" stroke="#b4453c" stroke-dasharray="4 3"/>
<polyline points="96.5,235.3 147.0,246.0 197.5,258.6 248.0,268.2" fill="none" stroke="#2f6f8f" stroke-width="2"/>
<line x1="96.5" y1="236.6" x2="96.5" y2="234.1" stroke="#2f6f8f" stroke-opacity="0.5" stroke-width="2"/>
<circle cx="96.5" cy="235.3" r="3.2" fill="#2f6f8f"/>
<line x1="147.0" y1="246.7" x2="147.0" y2="245.3" stroke="#2f6f8f" stroke-opacity="0.5" stroke-width="2"/>
<circle cx="147.0" cy="246.0" r="3.2" fill="#2f6f8f"/>
<line x1="197.5" y1="259.6" x2="197.5" y2="257.6" stroke="#2f6f8f" stroke-opacity="0.5" stroke-width="2"/>
<circle cx="197.5" cy="258.6" r="3.2" fill="#2f6f8f"/>
<line x1="248.0" y1="269.4" x2="248.0" y2="267.1" stroke="#2f6f8f" stroke-opacity="0.5" stroke-width="2"/>
<circle cx="248.0" cy="268.2" r="3.2" fill="#2f6f8f"/>
<text x="46" y="206" font-size="11" fill="#222">obs_latency_steps</text>
<text x="46.0" y="359" font-size="9" fill="#666" text-anchor="middle">0</text>
<text x="248.0" y="359" font-size="9" fill="#666" text-anchor="middle">4</text>
<text x="41" y="229.9" font-size="9" fill="#b4453c" text-anchor="end">56</text>
<text x="41" y="346" font-size="9" fill="#666" text-anchor="end">0</text>
</svg>